<svg width="158" height="159" viewBox="0 0 158 159" fill="none" xmlns="http://www.w3.org/2000/svg">
<g clip-path="url(#clip0_5_47)" filter="url(#filter0_i_5_47)">
<path d="M78.9998 142.282C70.3417 142.282 62.2315 140.638 54.6693 137.35C47.1071 134.062 40.5039 129.596 34.8596 123.952C29.2154 118.307 24.7493 111.704 21.4614 104.142C18.1735 96.5799 16.5295 88.4697 16.5295 79.8116C16.5295 71.1534 18.1735 63.0432 21.4614 55.481C24.7493 47.9188 29.2154 41.3156 34.8596 35.6714C40.5039 30.0271 47.1071 25.5611 54.6693 22.2731C62.2315 18.9852 70.3417 17.3413 78.9998 17.3413V0.901733L105.303 27.205L78.9998 53.5083V37.0687C67.1633 37.0687 57.0804 41.2334 48.7511 49.5628C40.4217 57.8922 36.257 67.9751 36.257 79.8116C36.257 87.045 37.9284 93.7578 41.2711 99.95C44.6138 106.142 49.0798 111.156 54.6693 114.992C56.4228 111.923 59.0258 109.321 62.4781 107.183C65.9304 105.046 69.9033 103.704 74.3968 103.156C74.068 100.854 73.6296 98.5526 73.0816 96.2511C72.5336 93.9496 71.876 91.8124 71.1088 89.8397C69.9033 90.826 68.5881 91.5932 67.1633 92.1412C65.7386 92.6892 64.2042 92.9632 62.5603 92.9632C58.9436 92.9632 55.8475 91.6754 53.2719 89.0999C50.6964 86.5244 49.4086 83.4283 49.4086 79.8116V73.2357C49.4086 71.3726 49.1072 69.619 48.5045 67.9751C47.9017 66.3311 47.1071 64.7968 46.1207 63.372C51.6006 63.2624 56.4776 63.7556 60.7519 64.8516C64.4782 65.8379 67.8757 67.4545 70.9444 69.7012C74.0132 71.948 75.6023 75.3181 75.7119 79.8116C75.7119 80.7979 75.6297 81.7021 75.4653 82.5241C75.3009 83.3461 74.9995 84.1954 74.5611 85.0722C73.1364 83.9762 71.7116 82.9899 70.2869 82.1131C68.8621 81.2363 67.3825 80.4691 65.8482 79.8116C67.7113 81.2363 69.8485 83.4283 72.2596 86.3874C74.6707 89.3465 76.9175 92.8536 78.9998 96.9087C81.1918 91.5384 83.9317 86.2504 87.2196 81.0445C90.5075 75.8387 94.3434 71.0438 98.7273 66.6599C96.2066 68.4135 93.7954 70.2766 91.4939 72.2494C89.1923 74.2221 86.9456 76.3045 84.7537 78.4964C83.9865 77.2908 83.3837 75.9483 82.9453 74.4687C82.5069 72.9891 82.2877 71.4822 82.2877 69.9478C82.2877 65.3448 83.8769 61.4541 87.0552 58.2758C90.2335 55.0974 94.1242 53.5083 98.7273 53.5083H105.303C107.824 53.5083 109.906 53.1795 111.55 52.5219C113.194 51.8643 114.564 51.0971 115.66 50.2204C116.866 49.234 117.797 48.138 118.455 46.9325C118.893 54.2755 118.51 60.8513 117.304 66.6599C116.318 71.5918 114.454 76.1127 111.715 80.2225C108.975 84.3324 104.646 86.3874 98.7273 86.3874C97.0833 86.3874 95.5216 86.1682 94.042 85.7298C92.5625 85.2914 91.2199 84.6886 90.0143 83.9214C89.2471 86.0038 88.3704 88.7711 87.384 92.2234C86.3976 95.6757 85.6304 99.3746 85.0825 103.32C89.2471 104.087 92.9186 105.512 96.097 107.594C99.2753 109.677 101.686 112.143 103.33 114.992C108.92 111.156 113.386 106.17 116.729 100.032C120.071 93.8948 121.743 87.1546 121.743 79.8116H141.47C141.47 88.4697 139.826 96.5799 136.538 104.142C133.25 111.704 128.784 118.307 123.14 123.952C117.496 129.596 110.893 134.062 103.33 137.35C95.7682 140.638 87.658 142.282 78.9998 142.282Z" fill="#798071"/>
</g>
<defs>
<filter id="filter0_i_5_47" x="0.0900879" y="0.901733" width="157.82" height="161.82" filterUnits="userSpaceOnUse" color-interpolation-filters="sRGB">
<feFlood flood-opacity="0" result="BackgroundImageFix"/>
<feBlend mode="normal" in="SourceGraphic" in2="BackgroundImageFix" result="shape"/>
<feColorMatrix in="SourceAlpha" type="matrix" values="0 0 0 0 0 0 0 0 0 0 0 0 0 0 0 0 0 0 127 0" result="hardAlpha"/>
<feOffset dy="4"/>
<feGaussianBlur stdDeviation="2"/>
<feComposite in2="hardAlpha" operator="arithmetic" k2="-1" k3="1"/>
<feColorMatrix type="matrix" values="0 0 0 0 0 0 0 0 0 0 0 0 0 0 0 0 0 0 0.25 0"/>
<feBlend mode="normal" in2="shape" result="effect1_innerShadow_5_47"/>
</filter>
<clipPath id="clip0_5_47">
<rect width="157.82" height="157.82" fill="white" transform="translate(0.0900879 0.901733)"/>
</clipPath>
</defs>
</svg>
