<svg width="168" height="168" viewBox="0 0 168 168" fill="none" xmlns="http://www.w3.org/2000/svg">
<g filter="url(#filter0_i_5_49)">
<path d="M45.6212 111.586C51.0605 111.586 56.355 112.194 61.505 113.409C66.6549 114.624 71.7758 116.447 76.8679 118.877V50.4818C72.123 47.7043 67.0888 45.6212 61.7653 44.2325C56.4418 42.8437 51.0605 42.1494 45.6212 42.1494C41.455 42.1494 37.3177 42.5544 33.2094 43.3645C29.101 44.1746 25.1373 45.3897 21.3183 47.0099V115.753C25.3688 114.364 29.3904 113.322 33.383 112.628C37.3756 111.934 41.455 111.586 45.6212 111.586ZM90.7553 118.877C95.8473 116.447 100.968 114.624 106.118 113.409C111.268 112.194 116.563 111.586 122.002 111.586C126.168 111.586 130.248 111.934 134.24 112.628C138.233 113.322 142.254 114.364 146.305 115.753V47.0099C142.486 45.3897 138.522 44.1746 134.414 43.3645C130.305 42.5544 126.168 42.1494 122.002 42.1494C116.563 42.1494 111.181 42.8437 105.858 44.2325C100.534 45.6212 95.5001 47.7043 90.7553 50.4818V118.877ZM83.8116 139.361C78.2566 134.963 72.2387 131.549 65.758 129.119C59.2772 126.689 52.5649 125.474 45.6212 125.474C40.7607 125.474 35.9869 126.11 31.2999 127.383C26.6129 128.656 22.1284 130.45 17.8465 132.765C15.4162 134.038 13.0727 133.98 10.816 132.591C8.55926 131.202 7.43091 129.177 7.43091 126.515V42.8437C7.43091 41.5707 7.74916 40.3556 8.38567 39.1983C9.02217 38.041 9.97693 37.173 11.2499 36.5944C16.5734 33.8169 22.1284 31.7338 27.9148 30.3451C33.7012 28.9563 39.6034 28.262 45.6212 28.262C52.3335 28.262 58.9011 29.1299 65.324 30.8658C71.7469 32.6018 77.9094 35.2057 83.8116 38.6775C89.7137 35.2057 95.8763 32.6018 102.299 30.8658C108.722 29.1299 115.29 28.262 122.002 28.262C128.02 28.262 133.922 28.9563 139.708 30.3451C145.495 31.7338 151.05 33.8169 156.373 36.5944C157.646 37.173 158.601 38.041 159.237 39.1983C159.874 40.3556 160.192 41.5707 160.192 42.8437V126.515C160.192 129.177 159.064 131.202 156.807 132.591C154.55 133.98 152.207 134.038 149.777 132.765C145.495 130.45 141.01 128.656 136.323 127.383C131.636 126.11 126.863 125.474 122.002 125.474C115.058 125.474 108.346 126.689 101.865 129.119C95.3844 131.549 89.3665 134.963 83.8116 139.361Z" fill="#4E78D0" fill-opacity="0.7"/>
</g>
<defs>
<filter id="filter0_i_5_49" x="0.487305" y="0.487183" width="166.649" height="170.649" filterUnits="userSpaceOnUse" color-interpolation-filters="sRGB">
<feFlood flood-opacity="0" result="BackgroundImageFix"/>
<feBlend mode="normal" in="SourceGraphic" in2="BackgroundImageFix" result="shape"/>
<feColorMatrix in="SourceAlpha" type="matrix" values="0 0 0 0 0 0 0 0 0 0 0 0 0 0 0 0 0 0 127 0" result="hardAlpha"/>
<feOffset dy="4"/>
<feGaussianBlur stdDeviation="2"/>
<feComposite in2="hardAlpha" operator="arithmetic" k2="-1" k3="1"/>
<feColorMatrix type="matrix" values="0 0 0 0 0 0 0 0 0 0 0 0 0 0 0 0 0 0 0.25 0"/>
<feBlend mode="normal" in2="shape" result="effect1_innerShadow_5_49"/>
</filter>
</defs>
</svg>
