<svg width="165" height="165" viewBox="0 0 165 165" fill="none" xmlns="http://www.w3.org/2000/svg">
<g filter="url(#filter0_i_5_51)">
<path d="M106.649 157.674C94.7723 157.674 84.2949 154.134 75.2163 147.054C66.1378 139.974 60.114 130.953 57.1449 119.99C62.2837 120.218 67.3654 119.704 72.39 118.448C77.4146 117.192 82.2108 115.422 86.7786 113.138H114.871C114.985 111.882 115.071 110.654 115.128 109.455C115.185 108.256 115.213 107.029 115.213 105.773C115.213 104.745 115.185 103.688 115.128 102.604C115.071 101.519 114.985 100.462 114.871 99.4347H104.764C106.592 97.3792 108.276 95.2095 109.818 92.9256C111.359 90.6417 112.758 88.2436 114.014 85.7313H138.167C135.883 82.3054 133.142 79.3078 129.944 76.7384C126.747 74.169 123.15 72.1991 119.153 70.8288C119.724 68.5448 120.095 66.2038 120.266 63.8057C120.438 61.4076 120.466 59.0666 120.352 56.7827C131.315 59.7518 140.336 65.7756 147.416 74.8541C154.497 83.9327 158.037 94.4101 158.037 106.286C158.037 120.561 153.041 132.694 143.048 142.686C133.056 152.678 120.923 157.674 106.649 157.674ZM90.3758 140.202C89.5764 137.919 88.8627 135.692 88.2346 133.522C87.6065 131.352 87.0641 129.126 86.6073 126.842H75.1307C77.072 129.697 79.3274 132.266 81.8968 134.55C84.4662 136.834 87.2925 138.718 90.3758 140.202ZM106.649 142.601C108.019 140.088 109.189 137.519 110.16 134.892C111.131 132.266 111.959 129.582 112.644 126.842H100.653C101.339 129.582 102.195 132.266 103.223 134.892C104.251 137.519 105.392 140.088 106.649 142.601ZM122.921 140.202C126.005 138.718 128.831 136.834 131.4 134.55C133.97 132.266 136.225 129.697 138.167 126.842H126.69C126.119 129.126 125.548 131.352 124.977 133.522C124.406 135.692 123.721 137.919 122.921 140.202ZM128.574 113.138H143.648C143.876 111.996 144.048 110.883 144.162 109.798C144.276 108.713 144.333 107.543 144.333 106.286C144.333 105.03 144.276 103.86 144.162 102.775C144.048 101.69 143.876 100.577 143.648 99.4347H128.574C128.688 100.462 128.774 101.519 128.831 102.604C128.888 103.688 128.917 104.745 128.917 105.773C128.917 107.029 128.888 108.256 128.831 109.455C128.774 110.654 128.688 111.882 128.574 113.138ZM58.6865 109.712C44.4121 109.712 32.2788 104.716 22.2867 94.7242C12.2946 84.732 7.29858 72.5988 7.29858 58.3244C7.29858 44.0499 12.2946 31.9167 22.2867 21.9246C32.2788 11.9325 44.4121 6.9364 58.6865 6.9364C72.961 6.9364 85.0942 11.9325 95.0863 21.9246C105.078 31.9167 110.074 44.0499 110.074 58.3244C110.074 72.5988 105.078 84.732 95.0863 94.7242C85.0942 104.716 72.961 109.712 58.6865 109.712ZM58.6865 96.0089C69.0783 96.0089 77.957 92.326 85.3226 84.9604C92.6882 77.5948 96.371 68.7161 96.371 58.3244C96.371 47.9326 92.6882 39.0539 85.3226 31.6883C77.957 24.3227 69.0783 20.6399 58.6865 20.6399C48.2948 20.6399 39.4161 24.3227 32.0504 31.6883C24.6848 39.0539 21.002 47.9326 21.002 58.3244C21.002 68.7161 24.6848 77.5948 32.0504 84.9604C39.4161 92.326 48.2948 96.0089 58.6865 96.0089ZM41.5572 54.8985C43.4985 54.8985 45.1258 54.2419 46.4391 52.9286C47.7523 51.6154 48.4089 49.9881 48.4089 48.0468C48.4089 46.1054 47.7523 44.4782 46.4391 43.1649C45.1258 41.8517 43.4985 41.195 41.5572 41.195C39.6159 41.195 37.9886 41.8517 36.6754 43.1649C35.3621 44.4782 34.7055 46.1054 34.7055 48.0468C34.7055 49.9881 35.3621 51.6154 36.6754 52.9286C37.9886 54.2419 39.6159 54.8985 41.5572 54.8985ZM58.6865 85.0461C64.1679 85.0461 69.0498 83.5044 73.3321 80.4212C77.6144 77.3379 80.7263 73.3981 82.6676 68.6019H34.7055C36.6468 73.3981 39.7586 77.3379 44.041 80.4212C48.3233 83.5044 53.2052 85.0461 58.6865 85.0461ZM75.8158 54.8985C77.7572 54.8985 79.3845 54.2419 80.6977 52.9286C82.011 51.6154 82.6676 49.9881 82.6676 48.0468C82.6676 46.1054 82.011 44.4782 80.6977 43.1649C79.3845 41.8517 77.7572 41.195 75.8158 41.195C73.8745 41.195 72.2472 41.8517 70.934 43.1649C69.6208 44.4782 68.9641 46.1054 68.9641 48.0468C68.9641 49.9881 69.6208 51.6154 70.934 52.9286C72.2472 54.2419 73.8745 54.8985 75.8158 54.8985Z" fill="#D26464"/>
</g>
<defs>
<filter id="filter0_i_5_51" x="0.446777" y="0.0847168" width="164.441" height="168.441" filterUnits="userSpaceOnUse" color-interpolation-filters="sRGB">
<feFlood flood-opacity="0" result="BackgroundImageFix"/>
<feBlend mode="normal" in="SourceGraphic" in2="BackgroundImageFix" result="shape"/>
<feColorMatrix in="SourceAlpha" type="matrix" values="0 0 0 0 0 0 0 0 0 0 0 0 0 0 0 0 0 0 127 0" result="hardAlpha"/>
<feOffset dy="4"/>
<feGaussianBlur stdDeviation="2"/>
<feComposite in2="hardAlpha" operator="arithmetic" k2="-1" k3="1"/>
<feColorMatrix type="matrix" values="0 0 0 0 0 0 0 0 0 0 0 0 0 0 0 0 0 0 0.25 0"/>
<feBlend mode="normal" in2="shape" result="effect1_innerShadow_5_51"/>
</filter>
</defs>
</svg>
