<svg width="100" height="100" viewBox="0 0 100 100" fill="none" xmlns="http://www.w3.org/2000/svg">
<path d="M56.4183 69.325C54.6384 70.4165 52.3591 71.0178 50 71.0178C47.6409 71.0178 45.3615 70.4168 43.5817 69.325L14.5239 51.5036C14.5239 51.5036 11.9011 49.8959 11.9011 53.5378C11.9011 57.6735 11.9011 70.0804 11.9011 70.0804C11.9011 70.2458 11.9011 71.0762 11.9011 71.3336C11.9011 80.7083 28.9583 90.8145 49.9992 90.8145C71.0402 90.8145 88.0973 80.7085 88.0973 71.3336C88.0973 71.0762 88.0973 70.2458 88.0973 70.0804C88.0973 70.0804 88.0973 56.921 88.0973 52.5345C88.0973 49.6112 86.2328 51.0396 86.2328 51.0396L56.4183 69.325Z" fill="#D2D5DD"/>
<path d="M98.3254 37.3278C100.558 35.9585 100.558 33.7178 98.3254 32.3483L54.0595 10.2125C51.8267 8.84323 48.173 8.84323 45.9403 10.2125L1.67456 32.3483C-0.558187 33.7175 -0.558187 35.9583 1.67456 37.3278L45.9403 64.4765C48.173 65.8458 51.8267 65.8458 54.0595 64.4765" fill="#D2D5DD"/>
<path d="M96.4946 77.5685C96.4946 70.0727 96.4946 47.585 96.4946 47.585C96.4946 47.585 96.5155 46.1648 95.6728 46.6338C94.9968 47.01 93.3398 47.9336 92.756 48.4414C92.082 49.0272 92.2339 50.3421 92.2339 50.3421C92.2339 50.3421 92.2339 70.7619 92.2339 77.5685C92.2339 77.9549 91.9018 78.1394 91.7434 78.2327C90.2132 79.1322 89.1843 80.7928 89.1843 82.6964C89.1843 85.5573 91.5033 87.8765 94.3644 87.8765C97.2253 87.8765 99.5443 85.5573 99.5443 82.6964C99.5443 80.7855 98.5078 79.1197 96.9679 78.2224C96.8147 78.1332 96.4946 77.9547 96.4946 77.5685Z" fill="#D2D5DD"/>
</svg>
