<svg width="152" height="152" viewBox="0 0 152 152" fill="none" xmlns="http://www.w3.org/2000/svg">
<g filter="url(#filter0_i_5_45)">
<path d="M6.78564 132.511V119.911H145.384V132.511H6.78564ZM25.6854 113.611C22.2204 113.611 19.2542 112.377 16.7868 109.91C14.3193 107.442 13.0856 104.476 13.0856 101.011V31.7122C13.0856 28.2473 14.3193 25.2811 16.7868 22.8136C19.2542 20.3462 22.2204 19.1124 25.6854 19.1124H126.484C129.949 19.1124 132.915 20.3462 135.383 22.8136C137.85 25.2811 139.084 28.2473 139.084 31.7122V101.011C139.084 104.476 137.85 107.442 135.383 109.91C132.915 112.377 129.949 113.611 126.484 113.611H25.6854ZM25.6854 101.011H126.484V31.7122H25.6854V101.011Z" fill="#49B6FF"/>
</g>
<defs>
<filter id="filter0_i_5_45" x="0.48584" y="0.212646" width="151.198" height="155.198" filterUnits="userSpaceOnUse" color-interpolation-filters="sRGB">
<feFlood flood-opacity="0" result="BackgroundImageFix"/>
<feBlend mode="normal" in="SourceGraphic" in2="BackgroundImageFix" result="shape"/>
<feColorMatrix in="SourceAlpha" type="matrix" values="0 0 0 0 0 0 0 0 0 0 0 0 0 0 0 0 0 0 127 0" result="hardAlpha"/>
<feOffset dy="4"/>
<feGaussianBlur stdDeviation="2"/>
<feComposite in2="hardAlpha" operator="arithmetic" k2="-1" k3="1"/>
<feColorMatrix type="matrix" values="0 0 0 0 0 0 0 0 0 0 0 0 0 0 0 0 0 0 0.25 0"/>
<feBlend mode="normal" in2="shape" result="effect1_innerShadow_5_45"/>
</filter>
</defs>
</svg>
